<?xml version="1.0" encoding="UTF-8"?><svg id="Laag_1" xmlns="http://www.w3.org/2000/svg" viewBox="0 0 1000 678"><defs><style>.cls-1{fill:#ed1c24;}.cls-1,.cls-2,.cls-3{stroke-width:0px;}.cls-2{fill:#1b1464;}.cls-3{fill:#fff;}</style></defs><rect class="cls-1" y="626.08" width="1000" height="51.92"/><rect class="cls-3" y="574.65" width="1000" height="51.92"/><rect class="cls-1" y="514.74" width="1000" height="51.92"/><rect class="cls-3" y="463.31" width="1000" height="51.92"/><rect class="cls-1" y="411.39" width="1000" height="51.92"/><rect class="cls-3" y="359.96" width="1000" height="51.92"/><rect class="cls-1" x="400" y="308.04" width="600" height="51.92"/><rect class="cls-3" x="400" y="256.61" width="600" height="51.92"/><rect class="cls-1" x="400" y="204.69" width="600" height="51.92"/><rect class="cls-3" x="400" y="153.78" width="600" height="51.92"/><rect class="cls-1" x="400" y="102.35" width="600" height="51.92"/><rect class="cls-3" x="400" y="50.43" width="600" height="51.92"/><rect class="cls-1" x="400" width="600" height="51.92"/><rect class="cls-2" y=".5" width="400" height="359"/><polygon class="cls-3" points="32.68 313.3 38.6 325.3 51.84 327.22 42.26 336.56 44.52 349.75 32.68 343.52 20.84 349.75 23.1 336.56 13.52 327.22 26.76 325.3 32.68 313.3"/><polygon class="cls-3" points="85.61 313.64 91.53 325.63 104.77 327.56 95.19 336.9 97.46 350.08 85.61 343.86 73.77 350.08 76.03 336.9 66.45 327.56 79.69 325.63 85.61 313.64"/><polygon class="cls-3" points="138.35 313.47 144.27 325.47 157.51 327.39 147.93 336.73 150.19 349.91 138.35 343.69 126.51 349.91 128.77 336.73 119.19 327.39 132.43 325.47 138.35 313.47"/><polygon class="cls-3" points="194.28 313.8 200.21 325.8 213.44 327.72 203.86 337.06 206.13 350.25 194.28 344.02 182.44 350.25 184.7 337.06 175.12 327.72 188.36 325.8 194.28 313.8"/><polygon class="cls-3" points="249.68 313.64 255.6 325.63 268.84 327.56 259.26 336.9 261.52 350.08 249.68 343.86 237.83 350.08 240.1 336.9 230.52 327.56 243.76 325.63 249.68 313.64"/><polygon class="cls-3" points="302.41 313.47 308.33 325.47 321.57 327.39 311.99 336.73 314.26 349.91 302.41 343.69 290.57 349.91 292.83 336.73 283.25 327.39 296.49 325.47 302.41 313.47"/><polygon class="cls-3" points="350.35 313.8 356.27 325.8 369.51 327.72 359.93 337.06 362.19 350.25 350.35 344.02 338.51 350.25 340.77 337.06 331.19 327.72 344.43 325.8 350.35 313.8"/><polygon class="cls-3" points="56.21 275.27 62.13 287.27 75.37 289.19 65.79 298.53 68.05 311.72 56.21 305.49 44.37 311.72 46.63 298.53 37.05 289.19 50.29 287.27 56.21 275.27"/><polygon class="cls-3" points="109.94 275.11 115.87 287.1 129.1 289.03 119.52 298.36 121.79 311.55 109.94 305.32 98.1 311.55 100.36 298.36 90.78 289.03 104.02 287.1 109.94 275.11"/><polygon class="cls-3" points="161.88 275.44 167.8 287.44 181.04 289.36 171.46 298.7 173.72 311.89 161.88 305.66 150.04 311.89 152.3 298.7 142.72 289.36 155.96 287.44 161.88 275.44"/><polygon class="cls-3" points="218.27 275.27 224.19 287.27 237.43 289.19 227.85 298.53 230.11 311.72 218.27 305.49 206.43 311.72 208.69 298.53 199.11 289.19 212.35 287.27 218.27 275.27"/><polygon class="cls-3" points="274.01 275.11 279.93 287.1 293.17 289.03 283.59 298.36 285.85 311.55 274.01 305.32 262.17 311.55 264.43 298.36 254.85 289.03 268.09 287.1 274.01 275.11"/><polygon class="cls-3" points="327.94 275.44 333.86 287.44 347.1 289.36 337.52 298.7 339.78 311.89 327.94 305.66 316.1 311.89 318.36 298.7 308.78 289.36 322.02 287.44 327.94 275.44"/><polygon class="cls-3" points="32.27 236.48 38.19 248.48 51.43 250.4 41.85 259.74 44.11 272.92 32.27 266.7 20.43 272.92 22.69 259.74 13.11 250.4 26.35 248.48 32.27 236.48"/><polygon class="cls-3" points="85.21 236.81 91.13 248.81 104.37 250.73 94.79 260.07 97.05 273.26 85.21 267.03 73.37 273.26 75.63 260.07 66.05 250.73 79.29 248.81 85.21 236.81"/><polygon class="cls-3" points="137.94 236.65 143.87 248.64 157.1 250.57 147.52 259.91 149.79 273.09 137.94 266.87 126.1 273.09 128.36 259.91 118.78 250.57 132.02 248.64 137.94 236.65"/><polygon class="cls-3" points="193.88 236.98 199.8 248.98 213.04 250.9 203.46 260.24 205.72 273.43 193.88 267.2 182.04 273.43 184.3 260.24 174.72 250.9 187.96 248.98 193.88 236.98"/><polygon class="cls-3" points="249.27 236.81 255.19 248.81 268.43 250.73 258.85 260.07 261.11 273.26 249.27 267.03 237.43 273.26 239.69 260.07 230.11 250.73 243.35 248.81 249.27 236.81"/><polygon class="cls-3" points="302.01 236.65 307.93 248.64 321.17 250.57 311.59 259.91 313.85 273.09 302.01 266.87 290.17 273.09 292.43 259.91 282.85 250.57 296.09 248.64 302.01 236.65"/><polygon class="cls-3" points="349.94 236.98 355.86 248.98 369.1 250.9 359.52 260.24 361.78 273.43 349.94 267.2 338.1 273.43 340.36 260.24 330.78 250.9 344.02 248.98 349.94 236.98"/><polygon class="cls-3" points="55.41 197.49 61.33 209.49 74.57 211.41 64.99 220.75 67.25 233.93 55.41 227.71 43.57 233.93 45.83 220.75 36.25 211.41 49.49 209.49 55.41 197.49"/><polygon class="cls-3" points="109.15 197.32 115.07 209.32 128.31 211.24 118.73 220.58 120.99 233.77 109.15 227.54 97.31 233.77 99.57 220.58 89.99 211.24 103.23 209.32 109.15 197.32"/><polygon class="cls-3" points="161.08 197.66 167 209.65 180.24 211.58 170.66 220.92 172.92 234.1 161.08 227.88 149.24 234.1 151.5 220.92 141.92 211.58 155.16 209.65 161.08 197.66"/><polygon class="cls-3" points="217.47 197.49 223.39 209.49 236.63 211.41 227.05 220.75 229.31 233.93 217.47 227.71 205.63 233.93 207.89 220.75 198.31 211.41 211.55 209.49 217.47 197.49"/><polygon class="cls-3" points="273.21 197.32 279.13 209.32 292.37 211.24 282.79 220.58 285.05 233.77 273.21 227.54 261.37 233.77 263.63 220.58 254.05 211.24 267.29 209.32 273.21 197.32"/><polygon class="cls-3" points="327.14 197.66 333.07 209.65 346.3 211.58 336.72 220.92 338.99 234.1 327.14 227.88 315.3 234.1 317.56 220.92 307.98 211.58 321.22 209.65 327.14 197.66"/><polygon class="cls-3" points="32.07 158.79 37.99 170.79 51.23 172.71 41.65 182.05 43.91 195.24 32.07 189.01 20.23 195.24 22.49 182.05 12.91 172.71 26.15 170.79 32.07 158.79"/><polygon class="cls-3" points="85 159.13 90.92 171.12 104.16 173.05 94.58 182.38 96.85 195.57 85 189.34 73.16 195.57 75.42 182.38 65.84 173.05 79.08 171.12 85 159.13"/><polygon class="cls-3" points="137.74 158.96 143.66 170.96 156.9 172.88 147.32 182.22 149.58 195.4 137.74 189.18 125.9 195.4 128.16 182.22 118.58 172.88 131.82 170.96 137.74 158.96"/><polygon class="cls-3" points="193.68 159.29 199.6 171.29 212.84 173.21 203.26 182.55 205.52 195.74 193.68 189.51 181.83 195.74 184.09 182.55 174.51 173.21 187.75 171.29 193.68 159.29"/><polygon class="cls-3" points="249.07 159.13 254.99 171.12 268.23 173.05 258.65 182.38 260.91 195.57 249.07 189.34 237.23 195.57 239.49 182.38 229.91 173.05 243.15 171.12 249.07 159.13"/><polygon class="cls-3" points="301.8 158.96 307.72 170.96 320.96 172.88 311.38 182.22 313.65 195.4 301.8 189.18 289.96 195.4 292.22 182.22 282.64 172.88 295.88 170.96 301.8 158.96"/><polygon class="cls-3" points="349.74 159.29 355.66 171.29 368.9 173.21 359.32 182.55 361.58 195.74 349.74 189.51 337.9 195.74 340.16 182.55 330.58 173.21 343.82 171.29 349.74 159.29"/><polygon class="cls-3" points="55 120.67 60.92 132.66 74.16 134.59 64.58 143.93 66.85 157.11 55 150.89 43.16 157.11 45.42 143.93 35.84 134.59 49.08 132.66 55 120.67"/><polygon class="cls-3" points="108.74 120.5 114.66 132.5 127.9 134.42 118.32 143.76 120.58 156.94 108.74 150.72 96.9 156.94 99.16 143.76 89.58 134.42 102.82 132.5 108.74 120.5"/><polygon class="cls-3" points="160.68 120.83 166.6 132.83 179.84 134.75 170.26 144.09 172.52 157.28 160.68 151.05 148.83 157.28 151.09 144.09 141.51 134.75 154.75 132.83 160.68 120.83"/><polygon class="cls-3" points="217.07 120.67 222.99 132.66 236.23 134.59 226.65 143.93 228.91 157.11 217.07 150.89 205.23 157.11 207.49 143.93 197.91 134.59 211.15 132.66 217.07 120.67"/><polygon class="cls-3" points="272.8 120.5 278.72 132.5 291.96 134.42 282.38 143.76 284.65 156.94 272.8 150.72 260.96 156.94 263.22 143.76 253.64 134.42 266.88 132.5 272.8 120.5"/><polygon class="cls-3" points="326.74 120.83 332.66 132.83 345.9 134.75 336.32 144.09 338.58 157.28 326.74 151.05 314.9 157.28 317.16 144.09 307.58 134.75 320.82 132.83 326.74 120.83"/><polygon class="cls-3" points="31.66 79.32 37.58 91.32 50.82 93.24 41.24 102.58 43.5 115.77 31.66 109.54 19.82 115.77 22.08 102.58 12.5 93.24 25.74 91.32 31.66 79.32"/><polygon class="cls-3" points="84.59 79.66 90.51 91.65 103.75 93.58 94.17 102.92 96.43 116.1 84.59 109.88 72.75 116.1 75.01 102.92 65.43 93.58 78.67 91.65 84.59 79.66"/><polygon class="cls-3" points="137.33 79.49 143.25 91.49 156.49 93.41 146.91 102.75 149.17 115.93 137.33 109.71 125.49 115.93 127.75 102.75 118.17 93.41 131.41 91.49 137.33 79.49"/><polygon class="cls-3" points="193.26 79.83 199.18 91.82 212.42 93.75 202.84 103.08 205.1 116.27 193.26 110.04 181.42 116.27 183.68 103.08 174.1 93.75 187.34 91.82 193.26 79.83"/><polygon class="cls-3" points="248.65 79.66 254.58 91.65 267.82 93.58 258.24 102.92 260.5 116.1 248.65 109.88 236.81 116.1 239.07 102.92 229.49 93.58 242.73 91.65 248.65 79.66"/><polygon class="cls-3" points="301.39 79.49 307.31 91.49 320.55 93.41 310.97 102.75 313.23 115.93 301.39 109.71 289.55 115.93 291.81 102.75 282.23 93.41 295.47 91.49 301.39 79.49"/><polygon class="cls-3" points="349.33 79.83 355.25 91.82 368.49 93.75 358.91 103.08 361.17 116.27 349.33 110.04 337.48 116.27 339.75 103.08 330.17 93.75 343.41 91.82 349.33 79.83"/><polygon class="cls-3" points="54.19 41.29 60.11 53.29 73.35 55.21 63.77 64.55 66.03 77.74 54.19 71.51 42.34 77.74 44.61 64.55 35.03 55.21 48.27 53.29 54.19 41.29"/><polygon class="cls-3" points="107.92 41.13 113.84 53.12 127.08 55.05 117.5 64.39 119.76 77.57 107.92 71.35 96.08 77.57 98.34 64.39 88.76 55.05 102 53.12 107.92 41.13"/><polygon class="cls-3" points="159.86 41.46 165.78 53.46 179.02 55.38 169.44 64.72 171.7 77.91 159.86 71.68 148.02 77.91 150.28 64.72 140.7 55.38 153.94 53.46 159.86 41.46"/><polygon class="cls-3" points="216.25 41.29 222.17 53.29 235.41 55.21 225.83 64.55 228.09 77.74 216.25 71.51 204.41 77.74 206.67 64.55 197.09 55.21 210.33 53.29 216.25 41.29"/><polygon class="cls-3" points="271.99 41.13 277.91 53.12 291.15 55.05 281.57 64.39 283.83 77.57 271.99 71.35 260.14 77.57 262.41 64.39 252.83 55.05 266.06 53.12 271.99 41.13"/><polygon class="cls-3" points="325.92 41.46 331.84 53.46 345.08 55.38 335.5 64.72 337.76 77.91 325.92 71.68 314.08 77.91 316.34 64.72 306.76 55.38 320 53.46 325.92 41.46"/><polygon class="cls-3" points="31.25 2.5 37.17 14.5 50.41 16.42 40.83 25.76 43.09 38.94 31.25 32.72 19.41 38.94 21.67 25.76 12.09 16.42 25.33 14.5 31.25 2.5"/><polygon class="cls-3" points="84.19 2.84 90.11 14.83 103.35 16.76 93.77 26.09 96.03 39.28 84.19 33.05 72.34 39.28 74.61 26.09 65.03 16.76 78.27 14.83 84.19 2.84"/><polygon class="cls-3" points="136.92 2.67 142.84 14.66 156.08 16.59 146.5 25.93 148.76 39.11 136.92 32.89 125.08 39.11 127.34 25.93 117.76 16.59 131 14.66 136.92 2.67"/><polygon class="cls-3" points="192.86 3 198.78 15 212.02 16.92 202.44 26.26 204.7 39.45 192.86 33.22 181.02 39.45 183.28 26.26 173.7 16.92 186.94 15 192.86 3"/><polygon class="cls-3" points="248.25 2.84 254.17 14.83 267.41 16.76 257.83 26.09 260.09 39.28 248.25 33.05 236.41 39.28 238.67 26.09 229.09 16.76 242.33 14.83 248.25 2.84"/><polygon class="cls-3" points="300.99 2.67 306.91 14.66 320.15 16.59 310.57 25.93 312.83 39.11 300.99 32.89 289.14 39.11 291.41 25.93 281.83 16.59 295.06 14.66 300.99 2.67"/><polygon class="cls-3" points="348.92 3 354.84 15 368.08 16.92 358.5 26.26 360.76 39.45 348.92 33.22 337.08 39.45 339.34 26.26 329.76 16.92 343 15 348.92 3"/></svg>